<svg xmlns="http://www.w3.org/2000/svg" xmlns:xlink="http://www.w3.org/1999/xlink">

<!--casa-->
<symbol id="icon-home" viewBox="0 0 460.298 460.297">
  <g>
    <g>
      <path d="M230.149,120.939L65.986,256.274c0,0.191-0.048,0.472-0.144,0.855c-0.094,0.38-0.144,0.656-0.144,0.852v137.041
        c0,4.948,1.809,9.236,5.426,12.847c3.616,3.613,7.898,5.431,12.847,5.431h109.63V303.664h73.097v109.64h109.629
        c4.948,0,9.236-1.814,12.847-5.435c3.617-3.607,5.432-7.898,5.432-12.847V257.981c0-0.76-0.104-1.334-0.288-1.707L230.149,120.939
        z"/>
      <path d="M457.122,225.438L394.6,173.476V56.989c0-2.663-0.856-4.853-2.574-6.567c-1.704-1.712-3.894-2.568-6.563-2.568h-54.816
        c-2.666,0-4.855,0.856-6.57,2.568c-1.711,1.714-2.566,3.905-2.566,6.567v55.673l-69.662-58.245
        c-6.084-4.949-13.318-7.423-21.694-7.423c-8.375,0-15.608,2.474-21.698,7.423L3.172,225.438c-1.903,1.52-2.946,3.566-3.14,6.136
        c-0.193,2.568,0.472,4.811,1.997,6.713l17.701,21.128c1.525,1.712,3.521,2.759,5.996,3.142c2.285,0.192,4.57-0.476,6.855-1.998
        L230.149,95.817l197.57,164.741c1.526,1.328,3.521,1.991,5.996,1.991h0.858c2.471-0.376,4.463-1.43,5.996-3.138l17.703-21.125
        c1.522-1.906,2.189-4.145,1.991-6.716C460.068,229.007,459.021,226.961,457.122,225.438z"/>
    </g>
  </g>
</symbol>

<!--usuario-->
<symbol id="icon-user" viewBox="0 0 6.3499998 6.3500002">
  <g>
    <path d="M 3.1708661,3.2974124 C 1.907863,3.2997936 0.86304935,4.299744 0.79995125,5.5634239 A 0.26460945,0.26460945 0 0 0 1.0655682,5.8404096 H 5.2864993 A 0.26460945,0.26460945 0 0 0 5.5500489,5.5634239 C 5.48687,4.2981438 4.4396051,3.2975523 3.1750001,3.2974124 Z"/>
    <path d="m 3.1750901,0.5095872 c -0.669506,0 -1.2153281,0.54839 -1.2153321,1.21864 -1.9e-6,0.6702501 0.5458221,1.2205301 1.2153321,1.2205301 0.6695099,0 1.217222,-0.55028 1.2172191,-1.2205301 -4e-6,-0.67025 -0.5477132,-1.21864 -1.2172191,-1.21864 z"/>
  </g>
</symbol>

<!--documento-->
<symbol id="icon-documentos" viewBox="0 0 512 512">
  <g>
    <path d="M453.8,128.9c0-0.1,0-0.1-0.1-0.2c-0.5-1.2-1.2-2.2-2-3.2c0,0,0-0.1-0.1-0.1l-43.8-45.6V43.2
      c0-23-18.7-41.7-41.7-41.7H100.2c-23.6,0-42.7,19.2-42.7,42.7v386.5c0,23.6,19.2,42.7,42.7,42.7h4.2c1.9,21.8,20.3,39,42.5,39
      h264.8c23.6,0,42.7-19.2,42.7-42.7V132.6C454.5,131.3,454.2,130,453.8,128.9z M375.9,76.8l43.7,45.4h-43.7V76.8z M78.4,430.8V44.2
      c0-12.1,9.8-21.9,21.9-21.9h265.9c11.5,0,20.8,9.3,20.8,20.8v15L373,43.7c0,0-0.1,0-0.1-0.1c-0.3-0.3-0.7-0.6-1-0.9
      c-0.2-0.1-0.3-0.3-0.5-0.4c-0.5-0.4-1.1-0.7-1.7-0.9c0,0,0,0-0.1,0c-1.3-0.5-2.6-0.8-4.1-0.8H147c-23.6,0-42.7,19.2-42.7,42.7
      v369.4h-4C88.2,452.6,78.4,442.8,78.4,430.8z M411.8,491.6H147c-12.1,0-21.9-9.8-21.9-21.9V83.2c0-12.1,9.8-21.9,21.9-21.9h208
      v71.3c0,5.8,4.7,10.4,10.4,10.4h68.2v326.7C433.6,481.8,423.8,491.6,411.8,491.6z"/>
    <path d="M292.7,143.1h19.7c5.8,0,10.4-4.7,10.4-10.4c0-5.8-4.7-10.4-10.4-10.4h-19.7c-5.8,0-10.4,4.7-10.4,10.4
      C282.2,138.4,286.9,143.1,292.7,143.1z"/>
    <path d="M170.3,143.1h65.8c5.8,0,10.4-4.7,10.4-10.4c0-5.8-4.7-10.4-10.4-10.4h-65.8c-5.8,0-10.4,4.7-10.4,10.4
      C159.8,138.4,164.5,143.1,170.3,143.1z"/>
    <path d="M380.8,387.1H236.1c-5.8,0-10.4,4.7-10.4,10.4s4.7,10.4,10.4,10.4h144.7c5.8,0,10.4-4.7,10.4-10.4
      S386.6,387.1,380.8,387.1z"/>
    <path d="M195.8,387.1h-25.5c-5.8,0-10.4,4.7-10.4,10.4s4.7,10.4,10.4,10.4h25.5c5.8,0,10.4-4.7,10.4-10.4
      S201.6,387.1,195.8,387.1z"/>
    <path d="M380.8,321.9h-39.1c-5.8,0-10.4,4.7-10.4,10.4s4.7,10.4,10.4,10.4h39.1c5.8,0,10.4-4.7,10.4-10.4
      S386.6,321.9,380.8,321.9z"/>
    <path d="M170.3,342.8h115.4c5.8,0,10.4-4.7,10.4-10.4s-4.7-10.4-10.4-10.4H170.3c-5.8,0-10.4,4.7-10.4,10.4
      S164.5,342.8,170.3,342.8z"/>
    <path d="M380.8,256.6h-78.3c-5.8,0-10.4,4.7-10.4,10.4s4.7,10.4,10.4,10.4h78.3c5.8,0,10.4-4.7,10.4-10.4
      S386.6,256.6,380.8,256.6z"/>
    <path d="M170.3,277.5H250c5.8,0,10.4-4.7,10.4-10.4s-4.7-10.4-10.4-10.4h-79.8c-5.8,0-10.4,4.7-10.4,10.4
      S164.5,277.5,170.3,277.5z"/>
    <path d="M380.8,189.4H236.1c-5.8,0-10.4,4.7-10.4,10.4c0,5.8,4.7,10.4,10.4,10.4h144.7c5.8,0,10.4-4.7,10.4-10.4
      C391.2,194.1,386.6,189.4,380.8,189.4z"/>
    <path d="M170.3,210.3h18.8c5.8,0,10.4-4.7,10.4-10.4c0-5.8-4.7-10.4-10.4-10.4h-18.8c-5.8,0-10.4,4.7-10.4,10.4
      C159.8,205.6,164.5,210.3,170.3,210.3z"/>
  </g>
</symbol>

<!--configuracion-->
<symbol id="icon-config" viewBox="0 0 174.248 174.248">
  <g>
    <path d="M173.145,73.91c-0.413-2.722-2.29-4.993-4.881-5.912l-13.727-4.881c-0.812-2.3-1.733-4.536-2.754-6.699l6.247-13.146
      c1.179-2.479,0.899-5.411-0.729-7.628c-5.265-7.161-11.556-13.452-18.698-18.693c-2.219-1.629-5.141-1.906-7.625-0.724
      l-13.138,6.242c-2.163-1.021-4.402-1.94-6.704-2.752l-4.883-13.729c-0.919-2.586-3.184-4.458-5.9-4.876
      c-9.65-1.483-16.792-1.483-26.457,0c-2.713,0.418-4.981,2.29-5.9,4.876l-4.883,13.729c-2.302,0.812-4.541,1.731-6.702,2.752
      l-13.143-6.242c-2.479-1.181-5.406-0.904-7.623,0.724c-7.142,5.241-13.433,11.532-18.698,18.693
      c-1.629,2.217-1.908,5.148-0.729,7.628l6.247,13.146c-1.021,2.159-1.94,4.4-2.754,6.699L5.982,68.003
      c-2.589,0.919-4.463,3.189-4.879,5.907c-0.749,4.92-1.099,9.115-1.099,13.219c0,4.098,0.35,8.299,1.099,13.219
      c0.413,2.722,2.29,4.993,4.881,5.912l13.727,4.881c0.814,2.304,1.736,4.541,2.754,6.704l-6.247,13.141
      c-1.179,2.479-0.899,5.411,0.727,7.623c5.258,7.156,11.549,13.447,18.7,18.698c2.217,1.629,5.144,1.911,7.625,0.724l13.138-6.242
      c2.163,1.021,4.402,1.94,6.704,2.752l4.883,13.729c0.919,2.586,3.184,4.458,5.9,4.876c4.828,0.744,9.154,1.104,13.228,1.104
      c4.074,0,8.401-0.36,13.228-1.104c2.715-0.418,4.981-2.29,5.9-4.876l4.883-13.729c2.302-0.812,4.541-1.731,6.704-2.752
      l13.138,6.242c2.484,1.186,5.411,0.904,7.628-0.724c7.159-5.26,13.45-11.551,18.698-18.698c1.626-2.212,1.906-5.144,0.727-7.623
      l-6.247-13.141c1.021-2.163,1.942-4.405,2.754-6.704l13.727-4.881c2.591-0.919,4.468-3.189,4.881-5.912
      c0.749-4.92,1.099-9.12,1.099-13.219S173.894,78.829,173.145,73.91z M158.949,93.72l-12.878,4.58
      c-2.251,0.797-3.982,2.625-4.66,4.92c-1.15,3.889-2.664,7.569-4.504,10.943c-1.142,2.1-1.213,4.619-0.187,6.777l5.841,12.285
      c-2.822,3.389-5.943,6.515-9.337,9.334l-12.283-5.834c-2.161-1.036-4.672-0.953-6.775,0.185c-3.379,1.838-7.061,3.35-10.953,4.502
      c-2.29,0.676-4.118,2.406-4.917,4.657l-4.582,12.883c-4.677,0.476-8.503,0.476-13.18,0l-4.582-12.883
      c-0.8-2.246-2.628-3.982-4.917-4.657c-3.894-1.152-7.579-2.664-10.953-4.502c-2.103-1.147-4.619-1.22-6.775-0.185l-12.283,5.839
      c-3.391-2.825-6.512-5.946-9.337-9.339l5.841-12.285c1.026-2.159,0.955-4.677-0.187-6.777c-1.835-3.364-3.35-7.049-4.504-10.948
      c-0.678-2.29-2.411-4.118-4.66-4.915l-12.878-4.58c-0.243-2.343-0.36-4.502-0.36-6.592s0.117-4.244,0.36-6.587l12.881-4.584
      c2.248-0.797,3.979-2.625,4.657-4.915c1.152-3.889,2.667-7.574,4.504-10.953c1.142-2.095,1.213-4.619,0.187-6.772l-5.841-12.285
      c2.827-3.393,5.948-6.519,9.337-9.339l12.288,5.839c2.151,1.036,4.677,0.953,6.775-0.185c3.372-1.838,7.054-3.35,10.948-4.502
      c2.29-0.676,4.118-2.411,4.917-4.657l4.582-12.883c4.633-0.481,8.466-0.481,13.18,0l4.582,12.883
      c0.8,2.246,2.628,3.982,4.917,4.657c3.894,1.152,7.579,2.664,10.953,4.502c2.103,1.147,4.614,1.22,6.775,0.185l12.283-5.839
      c3.389,2.82,6.51,5.946,9.337,9.339l-5.841,12.285c-1.026,2.154-0.955,4.677,0.187,6.772c1.843,3.389,3.357,7.069,4.504,10.948
      c0.678,2.295,2.409,4.123,4.66,4.92l12.878,4.58c0.243,2.343,0.36,4.502,0.36,6.592S159.192,91.377,158.949,93.72z"/>
    <path d="M87.124,50.802c-19.062,0-34.571,15.508-34.571,34.571s15.508,34.571,34.571,34.571s34.571-15.508,34.571-34.571
      S106.186,50.802,87.124,50.802z M87.124,105.009c-10.827,0-19.636-8.809-19.636-19.636s8.809-19.636,19.636-19.636
      s19.636,8.809,19.636,19.636S97.951,105.009,87.124,105.009z"/>
  </g>
</symbol>

<!--Doctor-->
<symbol id="icon-doctor" viewBox="0 0 50 50">
  <path d="M20.702,13.271c0,3.812,3.103,6.914,6.915,6.914s6.915-3.102,6.915-6.914s-3.103-6.914-6.915-6.914
  S20.702,9.459,20.702,13.271z M33.231,13.271c0,3.096-2.519,5.614-5.614,5.614s-5.614-2.519-5.614-5.614s2.519-5.614,5.614-5.614
  S33.231,10.176,33.231,13.271z M11.323,37.121h2.603v2.603c0,0.359,0.291,0.65,0.65,0.65h1.898v2.619c0,0.359,0.291,0.65,0.65,0.65
  h21.552c0.359,0,0.65-0.291,0.65-0.65V31.78c0-4.667-2.896-8.664-6.982-10.308c-0.029-0.014-0.059-0.023-0.09-0.033
  c-1.254-0.492-2.614-0.772-4.04-0.772h-0.628c-1.411,0-2.776,0.274-4.042,0.772c-0.03,0.01-0.059,0.018-0.087,0.032
  c-2.749,1.108-4.998,3.299-6.15,6.136h-2.731c-0.359,0-0.65,0.291-0.65,0.65v2.603h-2.603c-0.359,0-0.65,0.291-0.65,0.65v4.961
  C10.673,36.83,10.964,37.121,11.323,37.121z M28.215,21.967c1.12,0,2.192,0.198,3.195,0.545v1.732c0,1.935-1.574,3.51-3.51,3.51
  c-1.935,0-3.509-1.575-3.509-3.51v-1.715c1.013-0.353,2.085-0.562,3.195-0.562H28.215z M23.091,23.091v1.153
  c0,2.429,1.817,4.422,4.159,4.744v2.826c0,2.205,1.795,3.999,4,3.999s3.999-1.794,3.999-3.999v-0.728
  c0.94-0.282,1.631-1.145,1.631-2.175c0-1.257-1.023-2.28-2.281-2.28c-1.257,0-2.28,1.023-2.28,2.28c0,1.03,0.691,1.893,1.63,2.175
  v0.728c0,1.488-1.21,2.699-2.698,2.699s-2.699-1.211-2.699-2.699v-2.826c2.343-0.321,4.16-2.315,4.16-4.744v-1.176
  c3.153,1.634,5.315,4.922,5.315,8.712v10.563H17.775v-1.969h1.762c0.359,0,0.65-0.291,0.65-0.65v-2.603h2.603
  c0.359,0,0.65-0.291,0.65-0.65V31.51c0-0.359-0.291-0.65-0.65-0.65h-2.603v-2.603c0-0.359-0.291-0.65-0.65-0.65h-0.82
  C19.646,25.632,21.208,24.071,23.091,23.091z M34.599,29.892c-0.54,0-0.979-0.44-0.979-0.981c0-0.541,0.439-0.98,0.979-0.98
  c0.541,0,0.98,0.44,0.98,0.98C35.579,29.452,35.14,29.892,34.599,29.892z M11.974,32.16h2.603c0.359,0,0.65-0.291,0.65-0.65v-2.603
  h2.52h1.141v2.603c0,0.359,0.291,0.65,0.65,0.65h2.603v3.661h-2.603c-0.359,0-0.65,0.291-0.65,0.65v2.603h-1.762h-1.898v-2.603
  c0-0.359-0.291-0.65-0.65-0.65h-2.603V32.16z"/>
</symbol>

<!--reloj-->
<symbol id="icon-clock" viewBox="0 0 512 512">
    <path d="M512,112c0,29.938-11.906,57-31.062,77.094c-27.156-73.406-89.063-129.875-165.813-149.406C335.656,15.594,365.844,0,400,0
        C461.875,0,512,50.125,512,112z M196.859,39.688C176.328,15.594,146.141,0,112,0C50.141,0,0,50.125,0,112
        c0,29.938,11.922,57,31.063,77.094C58.219,115.688,120.141,59.219,196.859,39.688z M464,272c0,50.531-18.031,96.812-48,132.875V464
        c0,26.5-21.5,48-48,48c-24.562,0-44.594-18.531-47.438-42.344c-20.345,6.656-42,10.344-64.563,10.344
        c-22.563,0-44.234-3.688-64.563-10.344C188.594,493.469,168.563,512,144,512c-26.5,0-48-21.5-48-48v-59.125
        C66.047,368.812,48,322.531,48,272c0-114.875,93.125-208,208-208S464,157.125,464,272z M432,272c0-97.063-78.969-176-176-176
        c-97.047,0-176,78.938-176,176c0,97.031,78.953,176,176,176C353.031,448,432,369.031,432,272z M272,128h-32v144
        c0,2.812,0.734,5.562,2.141,8l64.016,110.844l27.688-16L272,267.719V128z"/>
</symbol>

<!--agenda-->
<symbol id="icon-agenda" viewBox="0 0 485.213 485.212">
  <path d="M60.652,75.816V15.163C60.652,6.781,67.433,0,75.817,0c8.38,0,15.161,6.781,15.161,15.163v60.653
    c0,8.38-6.781,15.161-15.161,15.161C67.433,90.978,60.652,84.196,60.652,75.816z M318.424,90.978
    c8.378,0,15.163-6.781,15.163-15.161V15.163C333.587,6.781,326.802,0,318.424,0c-8.382,0-15.168,6.781-15.168,15.163v60.653
    C303.256,84.196,310.042,90.978,318.424,90.978z M485.212,363.906c0,66.996-54.312,121.307-121.303,121.307
    c-66.986,0-121.302-54.311-121.302-121.307c0-66.986,54.315-121.3,121.302-121.3
    C430.9,242.606,485.212,296.919,485.212,363.906z M454.89,363.906c0-50.161-40.81-90.976-90.98-90.976
    c-50.166,0-90.976,40.814-90.976,90.976c0,50.171,40.81,90.98,90.976,90.98
    C414.08,454.886,454.89,414.077,454.89,363.906z M121.305,181.955H60.652v60.651h60.653V181.955z
    M60.652,333.584h60.653V272.93H60.652V333.584z M151.629,242.606h60.654v-60.651h-60.654V242.606z
    M151.629,333.584h60.654V272.93h-60.654V333.584z M30.328,360.891V151.628h333.582v60.653h30.327V94
    c0-18.421-14.692-33.349-32.843-33.349h-12.647v15.166
    c0,16.701-13.596,30.325-30.322,30.325c-16.731,0-30.326-13.624-30.326-30.325V60.651H106.14v15.166
    c0,16.701-13.593,30.325-30.322,30.325c-16.733,0-30.327-13.624-30.327-30.325V60.651H32.859
    C14.707,60.651,0.001,75.579,0.001,94v266.892c0,18.36,14.706,33.346,32.858,33.346h179.424v-30.331H32.859
    C31.485,363.906,30.328,362.487,30.328,360.891z M303.256,242.606v-60.651h-60.648v60.651H303.256z
    M409.399,363.906h-45.49v-45.49c0-8.377-6.781-15.158-15.163-15.158
    s-15.159,6.781-15.159,15.158v60.658c0,8.378,6.777,15.163,15.159,15.163h60.653
    c8.382,0,15.163-6.785,15.163-15.163
    C424.562,370.692,417.781,363.906,409.399,363.906z"/>
</symbol>

<!--cerrar-->
<symbol id="icon-cerrar" viewBox="0 0 12 16">
  <path fill-rule="evenodd" d="M7.48 8l3.75 3.75-1.48 1.48L6 9.48l-3.75 3.75-1.48-1.48L4.52 8 .77 4.25l1.48-1.48L6 6.52l3.75-3.75 1.48 1.48L7.48 8z"/>
</symbol>


<!--salida-->
<symbol id="icon-exit" viewBox="0 0 459 459">
  <path 
    fill="currentColor" 
    d="M181.05 321.3l35.7 35.7 127.5-127.5-127.5-127.5-35.7 35.7 66.3 66.3H0v51h247.35L181.05 321.3zM408 0H51C22.95 0 0 22.95 0 51v102h51V51h357v357H51V306H0v102c0 28.05 22.95 51 51 51h357c28.05 0 51-22.95 51-51V51C459 22.95 436.05 0 408 0z"
  />
</symbol>

<!--Admin-->
<symbol id="icon-admin" viewBox="0 0 24 24">
    <path fill="none" d="M0 0h24v24H0z"/>
    <path d="M12 14v2a6 6 0 0 0-6 6H4a8 8 0 0 1 8-8zm0-1c-3.315 0-6-2.685-6-6s2.685-6 6-6 6 2.685 6 6-2.685 6-6 6zm0-2c2.21 0 4-1.79 4-4s-1.79-4-4-4-4 1.79-4 4 1.79 4 4 4zm9 6h1v5h-8v-5h1v-1a3 3 0 0 1 6 0v1zm-2 0v-1a1 1 0 0 0-2 0v1h2z"/>
</symbol>

<!--empleados-->
<symbol id="icon-empleados" viewBox="0 0 36 36">
    <ellipse cx="18" cy="11.28" rx="4.76" ry="4.7"/>
    <path d="M10.78,11.75c.16,0,.32,0,.48,0,0-.15,0-.28,0-.43a6.7,6.7,0,0,1,3.75-6,4.62,4.62,0,1,0-4.21,6.46Z"/>
    <path d="M24.76,11.28c0,.15,0,.28,0,.43.16,0,.32,0,.48,0A4.58,4.58,0,1,0,21,5.29,6.7,6.7,0,0,1,24.76,11.28Z"/>
    <path d="M22.29,16.45a21.45,21.45,0,0,1,5.71,2,2.71,2.71,0,0,1,.68.53H34V15.56a.72.72,0,0,0-.38-.64,18,18,0,0,0-8.4-2.05l-.66,0A6.66,6.66,0,0,1,22.29,16.45Z"/>
    <path d="M6.53,20.92A2.76,2.76,0,0,1,8,18.47a21.45,21.45,0,0,1,5.71-2,6.66,6.66,0,0,1-2.27-3.55l-.66,0a18,18,0,0,0-8.4,2.05.72.72,0,0,0-.38.64V22H6.53Z"/>
    <rect x="21.46" y="26.69" width="5.96" height="1.4"/>
    <path d="M32.81,21.26H25.94v-1a1,1,0,0,0-2,0v1H22V18.43A20.17,20.17,0,0,0,18,18a19.27,19.27,0,0,0-9.06,2.22.76.76,0,0,0-.41.68v5.61h7.11v6.09a1,1,0,0,0,1,1H32.81a1,1,0,0,0,1-1V22.26A1,1,0,0,0,32.81,21.26Zm-1,10.36H17.64V23.26h6.3v.91a1,1,0,0,0,2,0v-.91h5.87Z"/>
</symbol>

<!--agregar usuario-->
<symbol id="icon-user-mas" viewBox="0 0 24 24">
    <path d="M14 14.252V22H4a8 8 0 0 1 10-7.748zM12 13c-3.315 0-6-2.685-6-6s2.685-6 6-6 6 2.685 6 6-2.685 6-6 6zm6 4v-3h2v3h3v2h-3v3h-2v-3h-3v-2h3z"/>
</symbol>

<!--recepcionista-->
<symbol id="icon-recep" viewBox="0 0 36 36">
    <circle cx="16.86" cy="9.73" r="6.46"/>
    <rect x="21" y="28" width="7" height="1.4"/>
    <path d="M15,30v3a1,1,0,0,0,1,1H33a1,1,0,0,0,1-1V23a1,1,0,0,0-1-1H26V20.53a1,1,0,0,0-2,0V22H22V18.42A32.12,32.12,0,0,0,16.86,18a26,26,0,0,0-11,2.39,3.28,3.28,0,0,0-1.88,3V30Zm17,2H17V24h7v.42a1,1,0,0,0,2,0V24h6Z"/>
</symbol>
</svg>